Normalized EMG Linear Envelopes
nRows=114
nColumns=4

endheader
time	 med_gas_r	  soleus_r	 tib_ant_r	
3.14919	  0.003541	  0.004578	  0.001625	
3.22077	  0.003513	  0.004733	  0.001549	
3.29234	  0.003431	  0.004829	  0.001504	
3.36391	  0.003261	  0.004825	  0.001487	
3.43548	  0.003036	  0.004729	  0.001468	
3.50706	  0.002859	  0.004639	  0.001438	
3.57863	  0.002792	  0.004701	  0.001416	
3.6502	  0.002806	  0.004957	  0.001424	
3.72177	  0.002837	  0.005278	  0.001467	
3.79335	  0.002867	  0.005455	  0.001526	
3.86492	  0.002907	  0.005399	  0.001574	
3.93649	  0.002926	  0.005218	  0.001591	
4.00806	  0.002863	  0.005083	  0.001582	
4.07964	  0.002732	  0.005050	  0.001571	
4.15121	  0.002638	  0.005063	  0.001567	
4.22278	  0.002656	  0.005052	  0.001559	
4.29435	  0.002750	  0.004989	  0.001537	
4.36593	  0.002811	  0.004910	  0.001506	
4.4375	  0.002805	  0.004869	  0.001474	
4.50907	  0.002806	  0.004875	  0.001450	
4.58065	  0.002880	  0.004873	  0.001447	
4.65222	  0.003014	  0.004800	  0.001462	
4.72379	  0.003154	  0.004671	  0.001479	
4.79536	  0.003240	  0.004556	  0.001495	
4.86694	  0.003236	  0.004498	  0.001511	
4.93851	  0.003149	  0.004505	  0.001518	
5.01008	  0.003011	  0.004554	  0.001516	
5.08165	  0.002874	  0.004582	  0.001518	
5.15323	  0.002803	  0.004580	  0.001539	
5.2248	  0.002863	  0.004690	  0.001589	
5.29637	  0.003102	  0.005078	  0.001649	
5.36794	  0.003468	  0.005654	  0.001684	
5.43952	  0.003632	  0.005864	  0.001663	
5.51109	  0.002876	  0.004607	  0.001541	
5.58266	  0.000284	  0.000511	  0.001268	
5.65423	 -0.004278	 -0.006548	  0.000866	
5.72581	 -0.008074	 -0.012096	  0.000610	
5.79738	 -0.003084	 -0.003369	  0.001232	
5.86895	  0.023997	  0.040145	  0.003881	
5.94052	  0.082347	  0.130833	  0.009136	
6.0121	  0.161002	  0.246515	  0.015479	
6.08367	  0.231704	  0.337226	  0.020144	
6.15524	  0.274213	  0.374390	  0.021991	
6.22681	  0.289396	  0.373998	  0.021821	
6.29839	  0.291418	  0.365628	  0.020744	
6.36996	  0.295257	  0.362490	  0.019826	
6.44153	  0.303037	  0.363099	  0.019674	
6.5131	  0.304364	  0.363078	  0.019795	
6.58468	  0.298059	  0.362989	  0.019606	
6.65625	  0.300557	  0.370916	  0.019446	
6.72782	  0.324827	  0.395080	  0.020062	
6.7994	  0.363767	  0.431475	  0.021686	
6.87097	  0.397181	  0.461952	  0.023521	
6.94254	  0.409144	  0.471441	  0.024361	
7.01411	  0.403634	  0.466712	  0.024229	
7.08569	  0.404308	  0.469061	  0.024624	
7.15726	  0.432956	  0.491481	  0.026822	
7.22883	  0.489638	  0.529043	  0.030682	
7.3004	  0.555163	  0.562979	  0.034646	
7.37198	  0.608158	  0.571682	  0.036526	
7.44355	  0.639956	  0.548174	  0.035374	
7.51512	  0.655030	  0.508822	  0.032535	
7.58669	  0.658320	  0.480825	  0.030232	
7.65827	  0.651802	  0.481197	  0.029831	
7.72984	  0.644222	  0.505911	  0.031303	
7.80141	  0.645514	  0.537602	  0.033477	
7.87298	  0.648002	  0.562542	  0.035198	
7.94456	  0.634271	  0.577254	  0.036289	
8.01613	  0.605784	  0.581776	  0.037067	
8.0877	  0.582838	  0.572913	  0.037672	
8.15927	  0.577830	  0.548618	  0.038126	
8.23085	  0.585019	  0.517342	  0.038350	
8.30242	  0.593653	  0.496397	  0.038258	
8.37399	  0.601833	  0.499113	  0.038068	
8.44556	  0.616277	  0.524853	  0.038130	
8.51714	  0.640139	  0.561310	  0.038573	
8.58871	  0.665126	  0.591852	  0.038992	
8.66028	  0.679165	  0.602730	  0.038606	
8.73185	  0.679347	  0.595012	  0.037564	
8.80343	  0.670050	  0.585156	  0.037171	
8.875	  0.654548	  0.587120	  0.038097	
8.94657	  0.642238	  0.604577	  0.039795	
9.01815	  0.648973	  0.633042	  0.041450	
9.08972	  0.673683	  0.657523	  0.042599	
9.16129	  0.691788	  0.667255	  0.043606	
9.23286	  0.683531	  0.672703	  0.044940	
9.30444	  0.655272	  0.685189	  0.045762	
9.37601	  0.625387	  0.695097	  0.045038	
9.44758	  0.603625	  0.688951	  0.043192	
9.51915	  0.589456	  0.669998	  0.041112	
9.59073	  0.579108	  0.651780	  0.039060	
9.6623	  0.576503	  0.640922	  0.037400	
9.73387	  0.595189	  0.634704	  0.037178	
9.80544	  0.635165	  0.636150	  0.038973	
9.87702	  0.670090	  0.653798	  0.041608	
9.94859	  0.675144	  0.681468	  0.043392	
10.0202	  0.653765	  0.701612	  0.044106	
10.0917	  0.628835	  0.707477	  0.044345	
10.1633	  0.623258	  0.706086	  0.044304	
10.2349	  0.647646	  0.707994	  0.044514	
10.3065	  0.692668	  0.715851	  0.045939	
10.378	  0.740954	  0.718758	  0.048457	
10.4496	  0.784305	  0.707863	  0.050544	
10.5212	  0.812599	  0.691865	  0.050759	
10.5927	  0.807235	  0.682414	  0.048888	
10.6643	  0.761158	  0.674806	  0.045773	
10.7359	  0.686575	  0.653662	  0.042667	
10.8075	  0.609021	  0.608939	  0.040663	
10.879	  0.559015	  0.548390	  0.040053	
10.9506	  0.549624	  0.496041	  0.039872	
11.0222	  0.556976	  0.464997	  0.038123	
11.0937	  0.532064	  0.435842	  0.032658	
11.1653	  0.441913	  0.377337	  0.022608	
11.2369	  0.300284	  0.285776	  0.009394	
